<svg width="512" height="512" viewBox="0 0 100 100" xmlns="http://www.w3.org/2000/svg" role="img" aria-label="Logo for awanbyru, a blue dragonfly inside a light blue circle.">
  <title>awanbyru Logo</title>
  <circle cx="50" cy="50" r="48" fill="#4299E1"/>
  <g fill="#2C5282" transform="translate(50 50) rotate(45) scale(0.55)">
    <!-- Body -->
    <ellipse cx="0" cy="22" rx="10" ry="14"/>
    <ellipse cx="0" cy="5" rx="8" ry="12"/>
    <ellipse cx="0" cy="-10" rx="7" ry="10"/>
    <ellipse cx="0" cy="-22" rx="6" ry="8"/>
    <!-- Head -->
    <circle cx="0" cy="-35" r="7"/>
    <!-- Wings -->
    <path d="M 8,-5 C 30,-30 55,-20 60,10 L 15,15 C 12,8 10,0 8,-5 Z" />
    <path d="M -8,-5 C -30,-30 -55,-20 -60,10 L -15,15 C -12,8 -10,0 -8,-5 Z" />
    <path d="M 8,8 C 25,40 45,45 50,30 L 15,20 C 12,15 10,12 8,8 Z" />
    <path d="M -8,8 C -25,40 -45,-45 -50,30 L -15,20 C -12,15 -10,12 -8,8 Z" />
  </g>
</svg>